<svg xmlns="http://www.w3.org/2000/svg" width="760" height="340" viewBox="0 0 760 340" role="img" aria-labelledby="title desc">
<title id="title">发布包累计下载趋势</title>
<desc id="desc">每日快照中的全部安装包与命令行包累计下载次数</desc>
<rect width="100%" height="100%" rx="12" fill="#ffffff"/>
<style>
text { font-family: -apple-system, BlinkMacSystemFont, "Segoe UI", sans-serif; fill: #172033; }
.muted { fill: #667085; }
.grid { stroke: #e4e7ec; stroke-width: 1; }
@media (prefers-color-scheme: dark) {
  rect:first-of-type { fill: #0d1117; }
  text { fill: #e6edf3; }
  .muted { fill: #9da7b3; }
  .grid { stroke: #30363d; }
}
</style>
<text x="24" y="32" font-size="20" font-weight="500">发布包累计下载趋势</text><text x="24" y="54" class="muted" font-size="13">每日快照中的全部安装包与命令行包累计下载次数</text><line class="grid" x1="58" y1="72.0" x2="720" y2="72.0"/><text x="50" y="76.0" text-anchor="end" class="muted" font-size="11">220</text><line class="grid" x1="58" y1="124.5" x2="720" y2="124.5"/><text x="50" y="128.5" text-anchor="end" class="muted" font-size="11">165</text><line class="grid" x1="58" y1="177.0" x2="720" y2="177.0"/><text x="50" y="181.0" text-anchor="end" class="muted" font-size="11">110</text><line class="grid" x1="58" y1="229.5" x2="720" y2="229.5"/><text x="50" y="233.5" text-anchor="end" class="muted" font-size="11">55</text><line class="grid" x1="58" y1="282.0" x2="720" y2="282.0"/><text x="50" y="286.0" text-anchor="end" class="muted" font-size="11">0</text><polyline points="58.0,105.4 168.3,103.5 278.7,102.5 389.0,94.9 499.3,79.6 609.7,73.9 720.0,72.0" fill="none" stroke="#2563eb" stroke-width="3" stroke-linejoin="round" stroke-linecap="round"/><circle cx="58.0" cy="105.4" r="3.5" fill="#2563eb"><title>累计下载：185</title></circle><circle cx="168.3" cy="103.5" r="3.5" fill="#2563eb"><title>累计下载：187</title></circle><circle cx="278.7" cy="102.5" r="3.5" fill="#2563eb"><title>累计下载：188</title></circle><circle cx="389.0" cy="94.9" r="3.5" fill="#2563eb"><title>累计下载：196</title></circle><circle cx="499.3" cy="79.6" r="3.5" fill="#2563eb"><title>累计下载：212</title></circle><circle cx="609.7" cy="73.9" r="3.5" fill="#2563eb"><title>累计下载：218</title></circle><circle cx="720.0" cy="72.0" r="3.5" fill="#2563eb"><title>累计下载：220</title></circle><text x="58" y="306" class="muted" font-size="11">2026-07-10</text><text x="720" y="306" text-anchor="end" class="muted" font-size="11">2026-07-16</text><circle cx="29" cy="326" r="5" fill="#2563eb"/><text x="40" y="330" font-size="12">累计下载</text>
</svg>
