<svg xmlns="http://www.w3.org/2000/svg" width="760" height="340" viewBox="0 0 760 340" role="img" aria-labelledby="title desc">
<title id="title">发布包累计下载趋势</title>
<desc id="desc">每日快照中的全部安装包与命令行包累计下载次数</desc>
<rect width="100%" height="100%" rx="12" fill="#ffffff"/>
<style>
text { font-family: -apple-system, BlinkMacSystemFont, "Segoe UI", sans-serif; fill: #172033; }
.muted { fill: #667085; }
.grid { stroke: #e4e7ec; stroke-width: 1; }
@media (prefers-color-scheme: dark) {
  rect:first-of-type { fill: #0d1117; }
  text { fill: #e6edf3; }
  .muted { fill: #9da7b3; }
  .grid { stroke: #30363d; }
}
</style>
<text x="24" y="32" font-size="20" font-weight="500">发布包累计下载趋势</text><text x="24" y="54" class="muted" font-size="13">每日快照中的全部安装包与命令行包累计下载次数</text><line class="grid" x1="58" y1="72.0" x2="720" y2="72.0"/><text x="50" y="76.0" text-anchor="end" class="muted" font-size="11">267</text><line class="grid" x1="58" y1="124.5" x2="720" y2="124.5"/><text x="50" y="128.5" text-anchor="end" class="muted" font-size="11">200</text><line class="grid" x1="58" y1="177.0" x2="720" y2="177.0"/><text x="50" y="181.0" text-anchor="end" class="muted" font-size="11">134</text><line class="grid" x1="58" y1="229.5" x2="720" y2="229.5"/><text x="50" y="233.5" text-anchor="end" class="muted" font-size="11">67</text><line class="grid" x1="58" y1="282.0" x2="720" y2="282.0"/><text x="50" y="286.0" text-anchor="end" class="muted" font-size="11">0</text><polyline points="58.0,136.5 108.9,134.9 159.8,134.1 210.8,127.8 261.7,115.3 312.6,110.5 363.5,109.0 414.5,101.1 465.4,99.5 516.3,99.5 567.2,94.0 618.2,84.6 669.1,75.1 720.0,72.0" fill="none" stroke="#2563eb" stroke-width="3" stroke-linejoin="round" stroke-linecap="round"/><circle cx="58.0" cy="136.5" r="3.5" fill="#2563eb"><title>累计下载：185</title></circle><circle cx="108.9" cy="134.9" r="3.5" fill="#2563eb"><title>累计下载：187</title></circle><circle cx="159.8" cy="134.1" r="3.5" fill="#2563eb"><title>累计下载：188</title></circle><circle cx="210.8" cy="127.8" r="3.5" fill="#2563eb"><title>累计下载：196</title></circle><circle cx="261.7" cy="115.3" r="3.5" fill="#2563eb"><title>累计下载：212</title></circle><circle cx="312.6" cy="110.5" r="3.5" fill="#2563eb"><title>累计下载：218</title></circle><circle cx="363.5" cy="109.0" r="3.5" fill="#2563eb"><title>累计下载：220</title></circle><circle cx="414.5" cy="101.1" r="3.5" fill="#2563eb"><title>累计下载：230</title></circle><circle cx="465.4" cy="99.5" r="3.5" fill="#2563eb"><title>累计下载：232</title></circle><circle cx="516.3" cy="99.5" r="3.5" fill="#2563eb"><title>累计下载：232</title></circle><circle cx="567.2" cy="94.0" r="3.5" fill="#2563eb"><title>累计下载：239</title></circle><circle cx="618.2" cy="84.6" r="3.5" fill="#2563eb"><title>累计下载：251</title></circle><circle cx="669.1" cy="75.1" r="3.5" fill="#2563eb"><title>累计下载：263</title></circle><circle cx="720.0" cy="72.0" r="3.5" fill="#2563eb"><title>累计下载：267</title></circle><text x="58" y="306" class="muted" font-size="11">2026-07-10</text><text x="720" y="306" text-anchor="end" class="muted" font-size="11">2026-07-23</text><circle cx="29" cy="326" r="5" fill="#2563eb"/><text x="40" y="330" font-size="12">累计下载</text>
</svg>
