<svg xmlns="http://www.w3.org/2000/svg" width="760" height="340" viewBox="0 0 760 340" role="img" aria-labelledby="title desc">
<title id="title">仓库近期关注趋势</title>
<desc id="desc">每个快照记录 GitHub 最近 14 天窗口内的独立数量</desc>
<rect width="100%" height="100%" rx="12" fill="#ffffff"/>
<style>
text { font-family: -apple-system, BlinkMacSystemFont, "Segoe UI", sans-serif; fill: #172033; }
.muted { fill: #667085; }
.grid { stroke: #e4e7ec; stroke-width: 1; }
@media (prefers-color-scheme: dark) {
  rect:first-of-type { fill: #0d1117; }
  text { fill: #e6edf3; }
  .muted { fill: #9da7b3; }
  .grid { stroke: #30363d; }
}
</style>
<text x="24" y="32" font-size="20" font-weight="500">仓库近期关注趋势</text><text x="24" y="54" class="muted" font-size="13">每个快照记录 GitHub 最近 14 天窗口内的独立数量</text><line class="grid" x1="58" y1="72.0" x2="720" y2="72.0"/><text x="50" y="76.0" text-anchor="end" class="muted" font-size="11">218</text><line class="grid" x1="58" y1="124.5" x2="720" y2="124.5"/><text x="50" y="128.5" text-anchor="end" class="muted" font-size="11">164</text><line class="grid" x1="58" y1="177.0" x2="720" y2="177.0"/><text x="50" y="181.0" text-anchor="end" class="muted" font-size="11">109</text><line class="grid" x1="58" y1="229.5" x2="720" y2="229.5"/><text x="50" y="233.5" text-anchor="end" class="muted" font-size="11">54</text><line class="grid" x1="58" y1="282.0" x2="720" y2="282.0"/><text x="50" y="286.0" text-anchor="end" class="muted" font-size="11">0</text><polyline points="58.0,238.7 92.8,238.7 127.7,227.1 162.5,224.2 197.4,223.2 232.2,218.4 267.1,217.5 301.9,215.5 336.7,207.8 371.6,203.0 406.4,199.2 441.3,196.3 476.1,186.6 510.9,177.0 545.8,177.0 580.6,173.1 615.5,175.1 650.3,169.3 685.2,167.4 720.0,155.8" fill="none" stroke="#2563eb" stroke-width="3" stroke-linejoin="round" stroke-linecap="round"/><circle cx="58.0" cy="238.7" r="3.5" fill="#2563eb"><title>独立访客：45</title></circle><circle cx="92.8" cy="238.7" r="3.5" fill="#2563eb"><title>独立访客：45</title></circle><circle cx="127.7" cy="227.1" r="3.5" fill="#2563eb"><title>独立访客：57</title></circle><circle cx="162.5" cy="224.2" r="3.5" fill="#2563eb"><title>独立访客：60</title></circle><circle cx="197.4" cy="223.2" r="3.5" fill="#2563eb"><title>独立访客：61</title></circle><circle cx="232.2" cy="218.4" r="3.5" fill="#2563eb"><title>独立访客：66</title></circle><circle cx="267.1" cy="217.5" r="3.5" fill="#2563eb"><title>独立访客：67</title></circle><circle cx="301.9" cy="215.5" r="3.5" fill="#2563eb"><title>独立访客：69</title></circle><circle cx="336.7" cy="207.8" r="3.5" fill="#2563eb"><title>独立访客：77</title></circle><circle cx="371.6" cy="203.0" r="3.5" fill="#2563eb"><title>独立访客：82</title></circle><circle cx="406.4" cy="199.2" r="3.5" fill="#2563eb"><title>独立访客：86</title></circle><circle cx="441.3" cy="196.3" r="3.5" fill="#2563eb"><title>独立访客：89</title></circle><circle cx="476.1" cy="186.6" r="3.5" fill="#2563eb"><title>独立访客：99</title></circle><circle cx="510.9" cy="177.0" r="3.5" fill="#2563eb"><title>独立访客：109</title></circle><circle cx="545.8" cy="177.0" r="3.5" fill="#2563eb"><title>独立访客：109</title></circle><circle cx="580.6" cy="173.1" r="3.5" fill="#2563eb"><title>独立访客：113</title></circle><circle cx="615.5" cy="175.1" r="3.5" fill="#2563eb"><title>独立访客：111</title></circle><circle cx="650.3" cy="169.3" r="3.5" fill="#2563eb"><title>独立访客：117</title></circle><circle cx="685.2" cy="167.4" r="3.5" fill="#2563eb"><title>独立访客：119</title></circle><circle cx="720.0" cy="155.8" r="3.5" fill="#2563eb"><title>独立访客：131</title></circle><polyline points="58.0,190.5 92.8,190.5 127.7,132.7 162.5,125.9 197.4,112.5 232.2,101.9 267.1,98.0 301.9,96.1 336.7,94.2 371.6,89.3 406.4,87.4 441.3,83.6 476.1,72.0 510.9,73.0 545.8,84.5 580.6,93.2 615.5,145.2 650.3,139.4 685.2,146.2 720.0,131.7" fill="none" stroke="#f59e0b" stroke-width="3" stroke-linejoin="round" stroke-linecap="round"/><circle cx="58.0" cy="190.5" r="3.5" fill="#f59e0b"><title>独立克隆：95</title></circle><circle cx="92.8" cy="190.5" r="3.5" fill="#f59e0b"><title>独立克隆：95</title></circle><circle cx="127.7" cy="132.7" r="3.5" fill="#f59e0b"><title>独立克隆：155</title></circle><circle cx="162.5" cy="125.9" r="3.5" fill="#f59e0b"><title>独立克隆：162</title></circle><circle cx="197.4" cy="112.5" r="3.5" fill="#f59e0b"><title>独立克隆：176</title></circle><circle cx="232.2" cy="101.9" r="3.5" fill="#f59e0b"><title>独立克隆：187</title></circle><circle cx="267.1" cy="98.0" r="3.5" fill="#f59e0b"><title>独立克隆：191</title></circle><circle cx="301.9" cy="96.1" r="3.5" fill="#f59e0b"><title>独立克隆：193</title></circle><circle cx="336.7" cy="94.2" r="3.5" fill="#f59e0b"><title>独立克隆：195</title></circle><circle cx="371.6" cy="89.3" r="3.5" fill="#f59e0b"><title>独立克隆：200</title></circle><circle cx="406.4" cy="87.4" r="3.5" fill="#f59e0b"><title>独立克隆：202</title></circle><circle cx="441.3" cy="83.6" r="3.5" fill="#f59e0b"><title>独立克隆：206</title></circle><circle cx="476.1" cy="72.0" r="3.5" fill="#f59e0b"><title>独立克隆：218</title></circle><circle cx="510.9" cy="73.0" r="3.5" fill="#f59e0b"><title>独立克隆：217</title></circle><circle cx="545.8" cy="84.5" r="3.5" fill="#f59e0b"><title>独立克隆：205</title></circle><circle cx="580.6" cy="93.2" r="3.5" fill="#f59e0b"><title>独立克隆：196</title></circle><circle cx="615.5" cy="145.2" r="3.5" fill="#f59e0b"><title>独立克隆：142</title></circle><circle cx="650.3" cy="139.4" r="3.5" fill="#f59e0b"><title>独立克隆：148</title></circle><circle cx="685.2" cy="146.2" r="3.5" fill="#f59e0b"><title>独立克隆：141</title></circle><circle cx="720.0" cy="131.7" r="3.5" fill="#f59e0b"><title>独立克隆：156</title></circle><text x="58" y="306" class="muted" font-size="11">2026-07-10</text><text x="720" y="306" text-anchor="end" class="muted" font-size="11">2026-07-29</text><circle cx="29" cy="326" r="5" fill="#2563eb"/><text x="40" y="330" font-size="12">独立访客</text><circle cx="141" cy="326" r="5" fill="#f59e0b"/><text x="152" y="330" font-size="12">独立克隆</text>
</svg>
