<svg xmlns="http://www.w3.org/2000/svg" width="760" height="340" viewBox="0 0 760 340" role="img" aria-labelledby="title desc">
<title id="title">仓库近期关注趋势</title>
<desc id="desc">每个快照记录 GitHub 最近 14 天窗口内的独立数量</desc>
<rect width="100%" height="100%" rx="12" fill="#ffffff"/>
<style>
text { font-family: -apple-system, BlinkMacSystemFont, "Segoe UI", sans-serif; fill: #172033; }
.muted { fill: #667085; }
.grid { stroke: #e4e7ec; stroke-width: 1; }
@media (prefers-color-scheme: dark) {
  rect:first-of-type { fill: #0d1117; }
  text { fill: #e6edf3; }
  .muted { fill: #9da7b3; }
  .grid { stroke: #30363d; }
}
</style>
<text x="24" y="32" font-size="20" font-weight="500">仓库近期关注趋势</text><text x="24" y="54" class="muted" font-size="13">每个快照记录 GitHub 最近 14 天窗口内的独立数量</text><line class="grid" x1="58" y1="72.0" x2="720" y2="72.0"/><text x="50" y="76.0" text-anchor="end" class="muted" font-size="11">187</text><line class="grid" x1="58" y1="124.5" x2="720" y2="124.5"/><text x="50" y="128.5" text-anchor="end" class="muted" font-size="11">140</text><line class="grid" x1="58" y1="177.0" x2="720" y2="177.0"/><text x="50" y="181.0" text-anchor="end" class="muted" font-size="11">94</text><line class="grid" x1="58" y1="229.5" x2="720" y2="229.5"/><text x="50" y="233.5" text-anchor="end" class="muted" font-size="11">47</text><line class="grid" x1="58" y1="282.0" x2="720" y2="282.0"/><text x="50" y="286.0" text-anchor="end" class="muted" font-size="11">0</text><polyline points="58.0,231.5 190.4,231.5 322.8,218.0 455.2,214.6 587.6,213.5 720.0,207.9" fill="none" stroke="#2563eb" stroke-width="3" stroke-linejoin="round" stroke-linecap="round"/><circle cx="58.0" cy="231.5" r="3.5" fill="#2563eb"><title>独立访客：45</title></circle><circle cx="190.4" cy="231.5" r="3.5" fill="#2563eb"><title>独立访客：45</title></circle><circle cx="322.8" cy="218.0" r="3.5" fill="#2563eb"><title>独立访客：57</title></circle><circle cx="455.2" cy="214.6" r="3.5" fill="#2563eb"><title>独立访客：60</title></circle><circle cx="587.6" cy="213.5" r="3.5" fill="#2563eb"><title>独立访客：61</title></circle><circle cx="720.0" cy="207.9" r="3.5" fill="#2563eb"><title>独立访客：66</title></circle><polyline points="58.0,175.3 190.4,175.3 322.8,107.9 455.2,100.1 587.6,84.4 720.0,72.0" fill="none" stroke="#f59e0b" stroke-width="3" stroke-linejoin="round" stroke-linecap="round"/><circle cx="58.0" cy="175.3" r="3.5" fill="#f59e0b"><title>独立克隆：95</title></circle><circle cx="190.4" cy="175.3" r="3.5" fill="#f59e0b"><title>独立克隆：95</title></circle><circle cx="322.8" cy="107.9" r="3.5" fill="#f59e0b"><title>独立克隆：155</title></circle><circle cx="455.2" cy="100.1" r="3.5" fill="#f59e0b"><title>独立克隆：162</title></circle><circle cx="587.6" cy="84.4" r="3.5" fill="#f59e0b"><title>独立克隆：176</title></circle><circle cx="720.0" cy="72.0" r="3.5" fill="#f59e0b"><title>独立克隆：187</title></circle><text x="58" y="306" class="muted" font-size="11">2026-07-10</text><text x="720" y="306" text-anchor="end" class="muted" font-size="11">2026-07-15</text><circle cx="29" cy="326" r="5" fill="#2563eb"/><text x="40" y="330" font-size="12">独立访客</text><circle cx="141" cy="326" r="5" fill="#f59e0b"/><text x="152" y="330" font-size="12">独立克隆</text>
</svg>
