<svg xmlns="http://www.w3.org/2000/svg" width="760" height="340" viewBox="0 0 760 340" role="img" aria-labelledby="title desc">
<title id="title">应用实际使用趋势</title>
<desc id="desc">匿名客户端每日汇总</desc>
<rect width="100%" height="100%" rx="12" fill="#ffffff"/>
<style>
text { font-family: -apple-system, BlinkMacSystemFont, "Segoe UI", sans-serif; fill: #172033; }
.muted { fill: #667085; }
.grid { stroke: #e4e7ec; stroke-width: 1; }
@media (prefers-color-scheme: dark) {
  rect:first-of-type { fill: #0d1117; }
  text { fill: #e6edf3; }
  .muted { fill: #9da7b3; }
  .grid { stroke: #30363d; }
}
</style>
<text x="24" y="32" font-size="20" font-weight="500">应用实际使用趋势</text><text x="24" y="54" class="muted" font-size="13">匿名客户端每日汇总</text><line class="grid" x1="58" y1="72.0" x2="720" y2="72.0"/><text x="50" y="76.0" text-anchor="end" class="muted" font-size="11">20</text><line class="grid" x1="58" y1="124.5" x2="720" y2="124.5"/><text x="50" y="128.5" text-anchor="end" class="muted" font-size="11">15</text><line class="grid" x1="58" y1="177.0" x2="720" y2="177.0"/><text x="50" y="181.0" text-anchor="end" class="muted" font-size="11">10</text><line class="grid" x1="58" y1="229.5" x2="720" y2="229.5"/><text x="50" y="233.5" text-anchor="end" class="muted" font-size="11">5</text><line class="grid" x1="58" y1="282.0" x2="720" y2="282.0"/><text x="50" y="286.0" text-anchor="end" class="muted" font-size="11">0</text><polyline points="58.0,271.5 131.6,187.5 205.1,229.5 278.7,240.0 352.2,271.5 425.8,240.0 499.3,261.0 572.9,271.5 646.4,229.5 720.0,271.5" fill="none" stroke="#2563eb" stroke-width="3" stroke-linejoin="round" stroke-linecap="round"/><circle cx="58.0" cy="271.5" r="3.5" fill="#2563eb"><title>启动次数：1</title></circle><circle cx="131.6" cy="187.5" r="3.5" fill="#2563eb"><title>启动次数：9</title></circle><circle cx="205.1" cy="229.5" r="3.5" fill="#2563eb"><title>启动次数：5</title></circle><circle cx="278.7" cy="240.0" r="3.5" fill="#2563eb"><title>启动次数：4</title></circle><circle cx="352.2" cy="271.5" r="3.5" fill="#2563eb"><title>启动次数：1</title></circle><circle cx="425.8" cy="240.0" r="3.5" fill="#2563eb"><title>启动次数：4</title></circle><circle cx="499.3" cy="261.0" r="3.5" fill="#2563eb"><title>启动次数：2</title></circle><circle cx="572.9" cy="271.5" r="3.5" fill="#2563eb"><title>启动次数：1</title></circle><circle cx="646.4" cy="229.5" r="3.5" fill="#2563eb"><title>启动次数：5</title></circle><circle cx="720.0" cy="271.5" r="3.5" fill="#2563eb"><title>启动次数：1</title></circle><polyline points="58.0,271.5 131.6,261.0 205.1,208.5 278.7,271.5 352.2,271.5 425.8,240.0 499.3,271.5 572.9,282.0 646.4,240.0 720.0,72.0" fill="none" stroke="#16a34a" stroke-width="3" stroke-linejoin="round" stroke-linecap="round"/><circle cx="58.0" cy="271.5" r="3.5" fill="#16a34a"><title>加固成功：1</title></circle><circle cx="131.6" cy="261.0" r="3.5" fill="#16a34a"><title>加固成功：2</title></circle><circle cx="205.1" cy="208.5" r="3.5" fill="#16a34a"><title>加固成功：7</title></circle><circle cx="278.7" cy="271.5" r="3.5" fill="#16a34a"><title>加固成功：1</title></circle><circle cx="352.2" cy="271.5" r="3.5" fill="#16a34a"><title>加固成功：1</title></circle><circle cx="425.8" cy="240.0" r="3.5" fill="#16a34a"><title>加固成功：4</title></circle><circle cx="499.3" cy="271.5" r="3.5" fill="#16a34a"><title>加固成功：1</title></circle><circle cx="572.9" cy="282.0" r="3.5" fill="#16a34a"><title>加固成功：0</title></circle><circle cx="646.4" cy="240.0" r="3.5" fill="#16a34a"><title>加固成功：4</title></circle><circle cx="720.0" cy="72.0" r="3.5" fill="#16a34a"><title>加固成功：20</title></circle><text x="58" y="306" class="muted" font-size="11">2026-07-13</text><text x="720" y="306" text-anchor="end" class="muted" font-size="11">2026-07-24</text><circle cx="29" cy="326" r="5" fill="#2563eb"/><text x="40" y="330" font-size="12">启动次数</text><circle cx="141" cy="326" r="5" fill="#16a34a"/><text x="152" y="330" font-size="12">加固成功</text>
</svg>
